<?xml version="1.0" encoding="UTF-8" standalone="no"?>
<!DOCTYPE svg PUBLIC "-//W3C//DTD SVG 1.1//EN"
 "http://www.w3.org/Graphics/SVG/1.1/DTD/svg11.dtd">
<!-- Generated by graphviz version 2.44.0 (0)
 -->
<!-- Title: fastq2bam_nf_pipeline_flowchart_SE_BL Pages: 1 -->
<svg width="896pt" height="904pt"
 viewBox="0.00 0.00 895.80 904.00" xmlns="http://www.w3.org/2000/svg" xmlns:xlink="http://www.w3.org/1999/xlink">
<g id="graph0" class="graph" transform="scale(1 1) rotate(0) translate(4 900)">
<title>fastq2bam_nf_pipeline_flowchart_SE_BL</title>
<polygon fill="white" stroke="transparent" points="-4,4 -4,-900 891.8,-900 891.8,4 -4,4"/>
<!-- v0 -->
<g id="node1" class="node">
<title>v0</title>
<ellipse fill="black" stroke="black" cx="204.8" cy="-877.4" rx="3.6" ry="3.6"/>
<text text-anchor="middle" x="139.2" y="-884.8" font-family="Times-Roman" font-size="14.00">Channel.fromPath</text>
</g>
<!-- v1 -->
<g id="node2" class="node">
<title>v1</title>
<ellipse fill="none" stroke="black" cx="144.8" cy="-819.3" rx="3.5" ry="3.5"/>
<text text-anchor="middle" x="118.3" y="-826.6" font-family="Times-Roman" font-size="14.00">flatten</text>
</g>
<!-- v0&#45;&gt;v1 -->
<g id="edge1" class="edge">
<title>v0&#45;&gt;v1</title>
<path fill="none" stroke="black" d="M201.07,-876.42C190.34,-876.27 159.25,-874.19 145.8,-855.8 141.04,-849.3 140.88,-840.18 141.86,-832.82"/>
<polygon fill="black" stroke="black" points="145.33,-833.35 143.99,-822.84 138.48,-831.89 145.33,-833.35"/>
<text text-anchor="middle" x="194.3" y="-844.6" font-family="Times-Roman" font-size="14.00">se_reads_files</text>
</g>
<!-- v3 -->
<g id="node5" class="node">
<title>v3</title>
<ellipse fill="none" stroke="black" cx="264.8" cy="-794.3" rx="3.5" ry="3.5"/>
<text text-anchor="middle" x="246.3" y="-801.6" font-family="Times-Roman" font-size="14.00">take</text>
</g>
<!-- v0&#45;&gt;v3 -->
<g id="edge4" class="edge">
<title>v0&#45;&gt;v3</title>
<path fill="none" stroke="black" d="M208.05,-875.51C215.32,-873.35 233,-867.17 242.8,-855.8 254.74,-841.94 260.41,-821.07 262.94,-807.82"/>
<polygon fill="black" stroke="black" points="266.4,-808.36 264.51,-797.93 259.49,-807.26 266.4,-808.36"/>
<text text-anchor="middle" x="300.3" y="-844.6" font-family="Times-Roman" font-size="14.00">se_reads_files</text>
</g>
<!-- v2 -->
<g id="node3" class="node">
<title>v2</title>
<ellipse fill="none" stroke="black" cx="143.8" cy="-769.3" rx="3.5" ry="3.5"/>
<text text-anchor="middle" x="124.8" y="-776.6" font-family="Times-Roman" font-size="14.00">map</text>
</g>
<!-- v1&#45;&gt;v2 -->
<g id="edge2" class="edge">
<title>v1&#45;&gt;v2</title>
<path fill="none" stroke="black" d="M144.75,-815.72C144.62,-809.72 144.3,-794.5 144.07,-783.32"/>
<polygon fill="black" stroke="black" points="147.57,-783.06 143.86,-773.13 140.57,-783.2 147.57,-783.06"/>
</g>
<!-- v4 -->
<g id="node4" class="node">
<title>v4</title>
<ellipse fill="none" stroke="black" cx="187.8" cy="-711.2" rx="3.5" ry="3.5"/>
<text text-anchor="middle" x="169.3" y="-718.5" font-family="Times-Roman" font-size="14.00">take</text>
</g>
<!-- v2&#45;&gt;v4 -->
<g id="edge3" class="edge">
<title>v2&#45;&gt;v4</title>
<path fill="none" stroke="black" d="M142.96,-765.81C141.06,-759.65 137.05,-743.41 143.8,-732.8 150.5,-722.26 164.17,-717.02 174.5,-714.48"/>
<polygon fill="black" stroke="black" points="175.32,-717.89 184.49,-712.57 174.01,-711.01 175.32,-717.89"/>
<text text-anchor="middle" x="197.3" y="-736.6" font-family="Times-Roman" font-size="14.00">se_reads_name</text>
</g>
<!-- v6 -->
<g id="node6" class="node">
<title>v6</title>
<ellipse fill="none" stroke="black" cx="264.8" cy="-638.6" rx="123.48" ry="18"/>
<text text-anchor="middle" x="264.8" y="-634.9" font-family="Times-Roman" font-size="14.00">fastp_SE_adapter_known</text>
</g>
<!-- v4&#45;&gt;v6 -->
<g id="edge6" class="edge">
<title>v4&#45;&gt;v6</title>
<path fill="none" stroke="black" d="M190.02,-708.16C197.14,-701.63 220.01,-680.66 238.61,-663.62"/>
<polygon fill="black" stroke="black" points="241.25,-665.94 246.26,-656.6 236.52,-660.78 241.25,-665.94"/>
</g>
<!-- v3&#45;&gt;v6 -->
<g id="edge5" class="edge">
<title>v3&#45;&gt;v6</title>
<path fill="none" stroke="black" d="M264.8,-790.63C264.8,-776.17 264.8,-706.34 264.8,-666.89"/>
<polygon fill="black" stroke="black" points="268.3,-666.64 264.8,-656.64 261.3,-666.64 268.3,-666.64"/>
</g>
<!-- v8 -->
<g id="node8" class="node">
<title>v8</title>
<ellipse fill="none" stroke="black" cx="285.8" cy="-551.6" rx="3.5" ry="3.5"/>
<text text-anchor="middle" x="266.8" y="-558.9" font-family="Times-Roman" font-size="14.00">map</text>
</g>
<!-- v6&#45;&gt;v8 -->
<g id="edge8" class="edge">
<title>v6&#45;&gt;v8</title>
<path fill="none" stroke="black" d="M289.74,-620.88C295.42,-615.75 300.69,-609.58 303.8,-602.6 309.78,-589.2 301.39,-573.16 294.17,-562.93"/>
<polygon fill="black" stroke="black" points="296.84,-560.66 287.92,-554.94 291.33,-564.97 296.84,-560.66"/>
<text text-anchor="middle" x="339.8" y="-591.4" font-family="Times-Roman" font-size="14.00">fastq_filts</text>
</g>
<!-- v7 -->
<g id="node9" class="node">
<title>v7</title>
<ellipse fill="black" stroke="black" cx="203.8" cy="-551.6" rx="1.8" ry="1.8"/>
</g>
<!-- v6&#45;&gt;v7 -->
<g id="edge9" class="edge">
<title>v6&#45;&gt;v7</title>
<path fill="none" stroke="black" d="M220.67,-621.71C212.74,-616.82 205.51,-610.55 200.8,-602.6 193.65,-590.53 196.7,-573.82 199.94,-563.11"/>
<polygon fill="black" stroke="black" points="203.35,-563.97 203.45,-553.38 196.76,-561.59 203.35,-563.97"/>
<text text-anchor="middle" x="250.3" y="-591.4" font-family="Times-Roman" font-size="14.00">fastp_filt_html</text>
</g>
<!-- v9 -->
<g id="node10" class="node">
<title>v9</title>
<ellipse fill="none" stroke="black" cx="131.8" cy="-464.6" rx="54.69" ry="18"/>
<text text-anchor="middle" x="131.8" y="-460.9" font-family="Times-Roman" font-size="14.00">fastqc_SE</text>
</g>
<!-- v6&#45;&gt;v9 -->
<g id="edge11" class="edge">
<title>v6&#45;&gt;v9</title>
<path fill="none" stroke="black" d="M201,-623.06C172.52,-613.04 141.65,-596.51 124.8,-569.6 110.31,-546.46 115.33,-514.46 121.9,-492.09"/>
<polygon fill="black" stroke="black" points="125.24,-493.15 124.96,-482.56 118.57,-491.01 125.24,-493.15"/>
<text text-anchor="middle" x="158.8" y="-547.9" font-family="Times-Roman" font-size="14.00">fastq_filts</text>
</g>
<!-- v16 -->
<g id="node17" class="node">
<title>v16</title>
<ellipse fill="none" stroke="black" cx="515.8" cy="-464.6" rx="71.49" ry="18"/>
<text text-anchor="middle" x="515.8" y="-460.9" font-family="Times-Roman" font-size="14.00">bwa_align_SE</text>
</g>
<!-- v6&#45;&gt;v16 -->
<g id="edge19" class="edge">
<title>v6&#45;&gt;v16</title>
<path fill="none" stroke="black" d="M330.21,-623.3C346.44,-618.17 363.32,-611.41 377.8,-602.6 414.58,-580.22 415.25,-563.94 445.8,-533.6 460.68,-518.83 477.52,-502.46 490.96,-489.48"/>
<polygon fill="black" stroke="black" points="493.67,-491.72 498.44,-482.26 488.81,-486.69 493.67,-491.72"/>
<text text-anchor="middle" x="479.8" y="-547.9" font-family="Times-Roman" font-size="14.00">fastq_filts</text>
</g>
<!-- v5 -->
<g id="node7" class="node">
<title>v5</title>
<ellipse fill="black" stroke="black" cx="297.8" cy="-711.2" rx="3.6" ry="3.6"/>
</g>
<!-- v5&#45;&gt;v6 -->
<g id="edge7" class="edge">
<title>v5&#45;&gt;v6</title>
<path fill="none" stroke="black" d="M296.55,-707.52C293.37,-700.72 284.72,-682.21 277.24,-666.22"/>
<polygon fill="black" stroke="black" points="280.21,-664.3 272.81,-656.73 273.87,-667.27 280.21,-664.3"/>
<text text-anchor="middle" x="326.8" y="-678.4" font-family="Times-Roman" font-size="14.00">adapter_ch</text>
</g>
<!-- v8&#45;&gt;v9 -->
<g id="edge10" class="edge">
<title>v8&#45;&gt;v9</title>
<path fill="none" stroke="black" d="M282.51,-549.8C261.99,-544.79 152.41,-517.98 149.8,-515.6 143.2,-509.59 139.02,-500.99 136.37,-492.61"/>
<polygon fill="black" stroke="black" points="139.71,-491.52 133.84,-482.69 132.92,-493.25 139.71,-491.52"/>
<text text-anchor="middle" x="206.8" y="-504.4" font-family="Times-Roman" font-size="14.00">fastq_filts_name</text>
</g>
<!-- v8&#45;&gt;v16 -->
<g id="edge20" class="edge">
<title>v8&#45;&gt;v16</title>
<path fill="none" stroke="black" d="M284.8,-547.9C281.94,-539.65 274.67,-514.44 286.8,-500.6 305.96,-478.74 376.51,-470.4 434.3,-467.29"/>
<polygon fill="black" stroke="black" points="434.74,-470.78 444.56,-466.79 434.4,-463.78 434.74,-470.78"/>
<text text-anchor="middle" x="343.8" y="-504.4" font-family="Times-Roman" font-size="14.00">fastq_filts_name</text>
</g>
<!-- v10 -->
<g id="node11" class="node">
<title>v10</title>
<ellipse fill="black" stroke="black" cx="1.8" cy="-392.1" rx="1.8" ry="1.8"/>
</g>
<!-- v9&#45;&gt;v10 -->
<g id="edge12" class="edge">
<title>v9&#45;&gt;v10</title>
<path fill="none" stroke="black" d="M80.61,-458.23C58.38,-453.56 33.44,-444.84 15.8,-428.6 8.89,-422.24 5.34,-412.04 3.55,-404.2"/>
<polygon fill="black" stroke="black" points="6.97,-403.45 1.89,-394.15 0.07,-404.59 6.97,-403.45"/>
<text text-anchor="middle" x="74.3" y="-417.4" font-family="Times-Roman" font-size="14.00">fastqc_html_files</text>
</g>
<!-- v11 -->
<g id="node12" class="node">
<title>v11</title>
<ellipse fill="none" stroke="black" cx="141.8" cy="-392.1" rx="3.5" ry="3.5"/>
<text text-anchor="middle" x="115.8" y="-399.4" font-family="Times-Roman" font-size="14.00">collect</text>
</g>
<!-- v9&#45;&gt;v11 -->
<g id="edge13" class="edge">
<title>v9&#45;&gt;v11</title>
<path fill="none" stroke="black" d="M134.22,-446.53C136,-433.98 138.38,-417.19 140,-405.8"/>
<polygon fill="black" stroke="black" points="143.48,-406.15 141.42,-395.76 136.55,-405.17 143.48,-406.15"/>
<text text-anchor="middle" x="178.8" y="-417.4" font-family="Times-Roman" font-size="14.00">fastqc_zips</text>
</g>
<!-- v12 -->
<g id="node13" class="node">
<title>v12</title>
<ellipse fill="none" stroke="black" cx="141.8" cy="-333.6" rx="60.39" ry="18"/>
<text text-anchor="middle" x="141.8" y="-329.9" font-family="Times-Roman" font-size="14.00">multiqc_SE</text>
</g>
<!-- v11&#45;&gt;v12 -->
<g id="edge14" class="edge">
<title>v11&#45;&gt;v12</title>
<path fill="none" stroke="black" d="M141.8,-388.37C141.8,-383.43 141.8,-372.5 141.8,-361.77"/>
<polygon fill="black" stroke="black" points="145.3,-361.75 141.8,-351.75 138.3,-361.75 145.3,-361.75"/>
</g>
<!-- v13 -->
<g id="node14" class="node">
<title>v13</title>
<ellipse fill="black" stroke="black" cx="141.8" cy="-246.6" rx="1.8" ry="1.8"/>
</g>
<!-- v12&#45;&gt;v13 -->
<g id="edge15" class="edge">
<title>v12&#45;&gt;v13</title>
<path fill="none" stroke="black" d="M141.8,-315.4C141.8,-298.52 141.8,-273.26 141.8,-258.82"/>
<polygon fill="black" stroke="black" points="145.3,-258.68 141.8,-248.68 138.3,-258.68 145.3,-258.68"/>
</g>
<!-- v14 -->
<g id="node15" class="node">
<title>v14</title>
<ellipse fill="black" stroke="black" cx="575.8" cy="-638.6" rx="3.6" ry="3.6"/>
</g>
<!-- v15 -->
<g id="node16" class="node">
<title>v15</title>
<ellipse fill="none" stroke="black" cx="715.8" cy="-551.6" rx="99.38" ry="18"/>
<text text-anchor="middle" x="715.8" y="-547.9" font-family="Times-Roman" font-size="14.00">bwa_index_genome</text>
</g>
<!-- v14&#45;&gt;v15 -->
<g id="edge16" class="edge">
<title>v14&#45;&gt;v15</title>
<path fill="none" stroke="black" d="M578.72,-635.82C591.54,-628.04 643.71,-596.37 679.86,-574.42"/>
<polygon fill="black" stroke="black" points="681.94,-577.26 688.67,-569.07 678.3,-571.27 681.94,-577.26"/>
<text text-anchor="middle" x="693.8" y="-591.4" font-family="Times-Roman" font-size="14.00">genome_ch</text>
</g>
<!-- v14&#45;&gt;v16 -->
<g id="edge18" class="edge">
<title>v14&#45;&gt;v16</title>
<path fill="none" stroke="black" d="M573.47,-635.27C565.45,-627.12 538.93,-598.76 527.8,-569.6 518.32,-544.76 515.75,-514.35 515.3,-492.85"/>
<polygon fill="black" stroke="black" points="518.8,-492.75 515.22,-482.78 511.8,-492.8 518.8,-492.75"/>
<text text-anchor="middle" x="567.8" y="-547.9" font-family="Times-Roman" font-size="14.00">genome_ch</text>
</g>
<!-- v15&#45;&gt;v16 -->
<g id="edge17" class="edge">
<title>v15&#45;&gt;v16</title>
<path fill="none" stroke="black" d="M678.65,-534.81C645.19,-520.59 595.96,-499.67 560.39,-484.55"/>
<polygon fill="black" stroke="black" points="561.31,-481.14 550.74,-480.45 558.58,-487.58 561.31,-481.14"/>
<text text-anchor="middle" x="706.8" y="-504.4" font-family="Times-Roman" font-size="14.00">genome_index_files_ch</text>
</g>
<!-- v18 -->
<g id="node18" class="node">
<title>v18</title>
<ellipse fill="none" stroke="black" cx="510.8" cy="-392.1" rx="3.5" ry="3.5"/>
<text text-anchor="middle" x="492.3" y="-399.4" font-family="Times-Roman" font-size="14.00">take</text>
</g>
<!-- v16&#45;&gt;v18 -->
<g id="edge21" class="edge">
<title>v16&#45;&gt;v18</title>
<path fill="none" stroke="black" d="M513.55,-446.54C512.88,-440.84 512.22,-434.46 511.8,-428.6 511.26,-421.01 511.01,-412.48 510.89,-405.69"/>
<polygon fill="black" stroke="black" points="514.39,-405.65 510.8,-395.69 507.39,-405.72 514.39,-405.65"/>
<text text-anchor="middle" x="544.3" y="-417.4" font-family="Times-Roman" font-size="14.00">sam_files</text>
</g>
<!-- v17 -->
<g id="node19" class="node">
<title>v17</title>
<ellipse fill="black" stroke="black" cx="590.8" cy="-392.1" rx="1.8" ry="1.8"/>
</g>
<!-- v16&#45;&gt;v17 -->
<g id="edge22" class="edge">
<title>v16&#45;&gt;v17</title>
<path fill="none" stroke="black" d="M550.74,-448.85C560.16,-443.56 569.69,-436.82 576.8,-428.6 582.87,-421.58 586.48,-411.62 588.52,-404.04"/>
<polygon fill="black" stroke="black" points="591.97,-404.61 590.65,-394.1 585.13,-403.14 591.97,-404.61"/>
</g>
<!-- v19 -->
<g id="node20" class="node">
<title>v19</title>
<ellipse fill="none" stroke="black" cx="510.8" cy="-333.6" rx="73.39" ry="18"/>
<text text-anchor="middle" x="510.8" y="-329.9" font-family="Times-Roman" font-size="14.00">samtools_sort</text>
</g>
<!-- v18&#45;&gt;v19 -->
<g id="edge23" class="edge">
<title>v18&#45;&gt;v19</title>
<path fill="none" stroke="black" d="M510.8,-388.37C510.8,-383.43 510.8,-372.5 510.8,-361.77"/>
<polygon fill="black" stroke="black" points="514.3,-361.75 510.8,-351.75 507.3,-361.75 514.3,-361.75"/>
</g>
<!-- v21 -->
<g id="node21" class="node">
<title>v21</title>
<ellipse fill="black" stroke="black" cx="655.8" cy="-246.6" rx="1.8" ry="1.8"/>
</g>
<!-- v19&#45;&gt;v21 -->
<g id="edge24" class="edge">
<title>v19&#45;&gt;v21</title>
<path fill="none" stroke="black" d="M575.73,-325.16C596.19,-320.11 617.65,-311.67 633.8,-297.6 645.46,-287.44 651.2,-269.92 653.82,-258.55"/>
<polygon fill="black" stroke="black" points="657.31,-258.93 655.69,-248.45 650.43,-257.65 657.31,-258.93"/>
<text text-anchor="middle" x="700.3" y="-286.4" font-family="Times-Roman" font-size="14.00">sorted_bams_ch</text>
</g>
<!-- v20 -->
<g id="node22" class="node">
<title>v20</title>
<ellipse fill="black" stroke="black" cx="508.8" cy="-246.6" rx="1.8" ry="1.8"/>
</g>
<!-- v19&#45;&gt;v20 -->
<g id="edge25" class="edge">
<title>v19&#45;&gt;v20</title>
<path fill="none" stroke="black" d="M510.28,-315.51C510.12,-309.81 509.94,-303.43 509.8,-297.6 509.48,-284.39 509.19,-269.2 509,-259.07"/>
<polygon fill="black" stroke="black" points="512.5,-258.77 508.82,-248.84 505.5,-258.9 512.5,-258.77"/>
<text text-anchor="middle" x="571.8" y="-286.4" font-family="Times-Roman" font-size="14.00">indexed_bams_ch</text>
</g>
<!-- v24 -->
<g id="node23" class="node">
<title>v24</title>
<ellipse fill="none" stroke="black" cx="307.8" cy="-246.6" rx="106.68" ry="18"/>
<text text-anchor="middle" x="307.8" y="-242.9" font-family="Times-Roman" font-size="14.00">bedtools_filt_blacklist</text>
</g>
<!-- v19&#45;&gt;v24 -->
<g id="edge26" class="edge">
<title>v19&#45;&gt;v24</title>
<path fill="none" stroke="black" d="M448.32,-323.96C422.16,-318.7 392.02,-310.44 366.8,-297.6 353.83,-291 341.27,-281.03 331.09,-271.72"/>
<polygon fill="black" stroke="black" points="333.47,-269.15 323.81,-264.8 328.65,-274.23 333.47,-269.15"/>
<text text-anchor="middle" x="435.8" y="-286.4" font-family="Times-Roman" font-size="14.00">both_bam_index_ch</text>
</g>
<!-- v22 -->
<g id="node24" class="node">
<title>v22</title>
<ellipse fill="none" stroke="black" cx="783.8" cy="-246.6" rx="3.5" ry="3.5"/>
<text text-anchor="middle" x="757.8" y="-253.9" font-family="Times-Roman" font-size="14.00">collect</text>
</g>
<!-- v19&#45;&gt;v22 -->
<g id="edge27" class="edge">
<title>v19&#45;&gt;v22</title>
<path fill="none" stroke="black" d="M582.88,-330.09C646.53,-326.53 733.37,-318 760.8,-297.6 772.74,-288.72 778.66,-272.15 781.47,-260.53"/>
<polygon fill="black" stroke="black" points="784.96,-260.94 783.44,-250.45 778.09,-259.6 784.96,-260.94"/>
</g>
<!-- v25 -->
<g id="node27" class="node">
<title>v25</title>
<ellipse fill="none" stroke="black" cx="307.8" cy="-159.6" rx="92.88" ry="18"/>
<text text-anchor="middle" x="307.8" y="-155.9" font-family="Times-Roman" font-size="14.00">samtools_bl_index</text>
</g>
<!-- v24&#45;&gt;v25 -->
<g id="edge30" class="edge">
<title>v24&#45;&gt;v25</title>
<path fill="none" stroke="black" d="M307.8,-228.4C307.8,-216.76 307.8,-201.15 307.8,-187.84"/>
<polygon fill="black" stroke="black" points="311.3,-187.78 307.8,-177.78 304.3,-187.78 311.3,-187.78"/>
<text text-anchor="middle" x="360.8" y="-199.4" font-family="Times-Roman" font-size="14.00">bl_filt_bams_ch</text>
</g>
<!-- v28 -->
<g id="node25" class="node">
<title>v28</title>
<ellipse fill="none" stroke="black" cx="783.8" cy="-159.6" rx="94.78" ry="18"/>
<text text-anchor="middle" x="783.8" y="-155.9" font-family="Times-Roman" font-size="14.00">multiqc_bam_stats</text>
</g>
<!-- v22&#45;&gt;v28 -->
<g id="edge28" class="edge">
<title>v22&#45;&gt;v28</title>
<path fill="none" stroke="black" d="M783.8,-242.77C783.8,-234.28 783.8,-208.35 783.8,-187.87"/>
<polygon fill="black" stroke="black" points="787.3,-187.77 783.8,-177.77 780.3,-187.77 787.3,-187.77"/>
<text text-anchor="middle" x="835.8" y="-199.4" font-family="Times-Roman" font-size="14.00">flagstat_log_ch</text>
</g>
<!-- v29 -->
<g id="node30" class="node">
<title>v29</title>
<ellipse fill="black" stroke="black" cx="783.8" cy="-72.6" rx="1.8" ry="1.8"/>
</g>
<!-- v28&#45;&gt;v29 -->
<g id="edge33" class="edge">
<title>v28&#45;&gt;v29</title>
<path fill="none" stroke="black" d="M783.8,-141.4C783.8,-124.52 783.8,-99.26 783.8,-84.82"/>
<polygon fill="black" stroke="black" points="787.3,-84.68 783.8,-74.68 780.3,-84.68 787.3,-84.68"/>
</g>
<!-- v23 -->
<g id="node26" class="node">
<title>v23</title>
<ellipse fill="black" stroke="black" cx="243.8" cy="-333.6" rx="3.6" ry="3.6"/>
</g>
<!-- v23&#45;&gt;v24 -->
<g id="edge29" class="edge">
<title>v23&#45;&gt;v24</title>
<path fill="none" stroke="black" d="M243.04,-330.07C240.85,-322.31 235.31,-298.37 244.8,-282.6 247.9,-277.45 252.06,-273 256.76,-269.17"/>
<polygon fill="black" stroke="black" points="258.95,-271.91 265.11,-263.29 254.92,-266.18 258.95,-271.91"/>
<text text-anchor="middle" x="285.3" y="-286.4" font-family="Times-Roman" font-size="14.00">blacklist_ch</text>
</g>
<!-- v26 -->
<g id="node28" class="node">
<title>v26</title>
<ellipse fill="none" stroke="black" cx="307.8" cy="-72.6" rx="104.78" ry="18"/>
<text text-anchor="middle" x="307.8" y="-68.9" font-family="Times-Roman" font-size="14.00">deeptools_make_bed</text>
</g>
<!-- v25&#45;&gt;v26 -->
<g id="edge31" class="edge">
<title>v25&#45;&gt;v26</title>
<path fill="none" stroke="black" d="M307.8,-141.4C307.8,-129.76 307.8,-114.15 307.8,-100.84"/>
<polygon fill="black" stroke="black" points="311.3,-100.78 307.8,-90.78 304.3,-100.78 311.3,-100.78"/>
<text text-anchor="middle" x="378.3" y="-112.4" font-family="Times-Roman" font-size="14.00">bl_filt_bam_tuple_ch</text>
</g>
<!-- v27 -->
<g id="node29" class="node">
<title>v27</title>
<ellipse fill="black" stroke="black" cx="307.8" cy="-1.8" rx="1.8" ry="1.8"/>
</g>
<!-- v26&#45;&gt;v27 -->
<g id="edge32" class="edge">
<title>v26&#45;&gt;v27</title>
<path fill="none" stroke="black" d="M307.8,-54.59C307.8,-42.06 307.8,-25.34 307.8,-14.34"/>
<polygon fill="black" stroke="black" points="311.3,-14.19 307.8,-4.19 304.3,-14.19 311.3,-14.19"/>
<text text-anchor="middle" x="371.8" y="-25.4" font-family="Times-Roman" font-size="14.00">bed_files_norm_ch</text>
</g>
</g>
</svg>
